<svg width="58" height="60" viewBox="0 0 58 60" fill="none" xmlns="http://www.w3.org/2000/svg">
<path fill-rule="evenodd" clip-rule="evenodd" d="M25.7143 0H22.8571H20H17.1428H14.2857H11.4285H8.57139H5.71425H2.85711V2.85714H-3.43323e-05V5.71429V8.57143V11.4286V14.2857H2.85711H5.71425H8.57139H11.4285L14.2857 14.2857V17.1429H11.4285H8.57139H5.71425V20H8.57139H11.4285H14.2857H17.1428V22.8571V25.7143L14.2857 25.7143H11.4285V28.5714V31.4286H14.2857V28.5714H17.1428V31.4286V34.2857V37.1429H20V40H22.8571V42.8571H25.7143V45.7143V48.5714V51.4286V54.2857V57.1429H22.8571V60H25.7143H28.5714V57.1429V54.2857V51.4286H31.4285L31.4285 48.5714H34.2857V51.4286H37.1428V54.2857H40V57.1429H37.1428V60H40H42.8571V57.1429V54.2857V51.4286L42.8571 48.5714H45.7143V45.7143H48.5714V42.8571H51.4285V40H54.2857V37.1429H57.1428V34.2857V31.4286V28.5714V25.7143H54.2857V28.5714H51.4285V31.4286H48.5714V34.2857H45.7143H42.8571H40V31.4286H37.1428V28.5714H34.2857V25.7143L31.4285 25.7143V22.8571H28.5714V20V17.1429V14.2857V11.4286V8.57143V5.71429V2.85714H25.7143V0ZM17.1428 8.57143V5.71429V2.85714H20H22.8571V5.71429V8.57143H20H17.1428Z" fill="#0E0E0EB3"/>
</svg>
