<svg width="68" height="60" viewBox="0 0 68 60" fill="none" xmlns="http://www.w3.org/2000/svg">
<path fill-rule="evenodd" clip-rule="evenodd" d="M28.8 0H26.4H24H21.6H19.2H16.8H14.4V2.4H12V4.8H9.59995V7.2V9.6V12H7.19995H4.79995H2.39996V14.4H-4.57764e-05V16.8V19.2V21.6H2.39996V24H4.79995H7.19995H9.59995V26.4V28.8V31.2V33.6V36V38.4V40.8V43.2H12V45.6V48V50.4H14.4V52.8L16.8 52.8V55.2H19.2V57.6L21.6 57.6V60H24H26.4H28.7999H31.2H33.6H36H38.4H40.8H43.2H45.6H48H50.4H52.8H55.2V57.6H57.6V55.2H60V52.8H62.4V50.4H64.8V48V45.6V43.2H67.2V40.8V38.4V36V33.6V31.2V28.8H64.8V26.4H62.4H60V24H57.6H55.2H52.8H50.4H48H45.6H43.2H40.8H38.4V21.6V19.2V16.8V14.4V12V9.6H36V7.2L33.6 7.2V4.8H31.2V2.4H28.8V0ZM21.6 12H19.2V14.4L19.2 16.8H21.6H24V14.4V12H21.6Z" fill="#0E0E0EB3"/>
</svg>
