<svg width="58" height="60" viewBox="0 0 58 60" fill="none" xmlns="http://www.w3.org/2000/svg">
<path fill-rule="evenodd" clip-rule="evenodd" d="M31.4286 0H34.2857H37.1429H40H42.8571H45.7143H48.5714H51.4286H54.2857V2.85714H57.1429V5.71429V8.57143V11.4286V14.2857H54.2857H51.4286H48.5714H45.7143L42.8571 14.2857V17.1429H45.7143H48.5714H51.4286V20H48.5714H45.7143H42.8571H40V22.8571V25.7143L42.8571 25.7143H45.7143V28.5714V31.4286H42.8571V28.5714H40V31.4286V34.2857V37.1429H37.1429V40H34.2857V42.8571H31.4286V45.7143V48.5714V51.4286V54.2857V57.1429H34.2857V60H31.4286H28.5714V57.1429V54.2857V51.4286H25.7143L25.7143 48.5714H22.8571V51.4286H20V54.2857H17.1429V57.1429H20V60H17.1429H14.2857V57.1429V54.2857V51.4286L14.2857 48.5714H11.4286V45.7143H8.57143V42.8571H5.71429V40H2.85714V37.1429H0V34.2857V31.4286V28.5714V25.7143H2.85714V28.5714H5.71429V31.4286H8.57143V34.2857H11.4286H14.2857H17.1429V31.4286H20V28.5714H22.8571V25.7143L25.7143 25.7143V22.8571H28.5714V20V17.1429V14.2857V11.4286V8.57143V5.71429V2.85714H31.4286V0ZM40 8.57143V5.71429V2.85714H37.1429H34.2857V5.71429V8.57143H37.1429H40Z" fill="#0E0E0EB3"/>
</svg>
