<svg width="58" height="60" viewBox="0 0 58 60" fill="none" xmlns="http://www.w3.org/2000/svg">
<path fill-rule="evenodd" clip-rule="evenodd" d="M51.4285 0H48.5714H45.7143H42.8571H40V2.85714V5.71429V8.57143V11.4286V14.2857V17.1429V20V22.8571H37.1428H34.2857H31.4285H28.5714H25.7143H22.8571H20H17.1428V25.7143V28.5714H14.2857H11.4285H8.57139H5.71425V31.4286V34.2857H2.85711H-3.43323e-05V37.1429V40H2.85711H5.71425H8.57139V42.8571V45.7143H11.4285H14.2857H17.1428H20V48.5714V51.4286V54.2857V57.1429V60H22.8571H25.7143H28.5714V57.1429H25.7143H22.8571V54.2857V51.4286V48.5714V45.7143H25.7143H28.5714H31.4285V48.5714V51.4286V54.2857V57.1429V60H34.2857H37.1428H40V57.1429H37.1428H34.2857V54.2857V51.4286V48.5714V45.7143H37.1428H40H42.8571H45.7143V42.8571H48.5714H51.4285V40V37.1429V34.2857V31.4286V28.5714V25.7143V22.8571H48.5714H45.7143V20V17.1429V14.2857V11.4286H48.5714H51.4285H54.2857H57.1428V8.57143V5.71429H54.2857H51.4285V2.85714V0ZM42.8571 2.85714H45.7143V5.71429H42.8571L42.8571 2.85714Z" fill="#0E0E0EB3"/>
</svg>
