<svg width="88" height="60" viewBox="0 0 88 60" fill="none" xmlns="http://www.w3.org/2000/svg">
<path fill-rule="evenodd" clip-rule="evenodd" d="M43.6364 0H40.9091V2.72727H38.1818H35.4545V5.45455H32.7273H30H27.2727L27.2727 8.18182H24.5455V10.9091V13.6364H27.2727L27.2727 16.3636L27.2727 19.0909H24.5455V21.8182H27.2727L27.2727 24.5455H24.5455V27.2727L21.8182 27.2727H19.0909V30H16.3636H13.6364H10.9091H8.18182V32.7273H5.45455H2.72727H0V35.4545H2.72727V38.1818H5.45455V40.9091H8.18182V43.6364H10.9091V46.3636H13.6364V49.0909H16.3636V51.8182H13.6364V54.5455L10.9091 54.5455V57.2727H13.6364V60H16.3636V57.2727H19.0909V54.5455L21.8182 54.5455V51.8182H24.5455H27.2727H30V49.0909H32.7273H35.4545V46.3636H38.1818L38.1818 43.6364H40.9091V40.9091H43.6364V38.1818H46.3636H49.0909H51.8182V35.4545L51.8182 32.7273H54.5455V35.4545H57.2727H60H62.7273H65.4545H68.1818H70.9091V32.7273H73.6364H76.3636H79.0909H81.8182H84.5455H87.2727V30V27.2727V24.5455H84.5455H81.8182V21.8182H79.0909H76.3636V19.0909H73.6364L70.9091 19.0909V16.3636H68.1818V13.6364H65.4545H62.7273H60H57.2727V16.3636H54.5455V19.0909H51.8182L51.8182 21.8182H49.0909V24.5455H46.3636H43.6364V27.2727L40.9091 27.2727L38.1818 27.2727V24.5455H40.9091V21.8182V19.0909V16.3636H43.6364V13.6364H46.3636V10.9091V8.18182H49.0909V5.45455V2.72727V0H46.3636V2.72727H43.6364V0ZM60 27.2727V24.5455V21.8182V19.0909L62.7273 19.0909H65.4545H68.1818V21.8182V24.5455V27.2727L65.4545 27.2727H62.7273L60 27.2727ZM65.4545 21.8182H62.7273V24.5455H65.4545V21.8182Z" fill="#0E0E0EB3"/>
</svg>
