<svg width="60" height="60" viewBox="0 0 60 60" fill="none" xmlns="http://www.w3.org/2000/svg">
<path fill-rule="evenodd" clip-rule="evenodd" d="M10.1538 0H5.53846V4.61538V9.23077V13.8462L9.23077 13.8462V18.4615H13.8462L13.8462 23.0769H18.4615V27.6923H13.8462H9.23077V32.3077H4.61538V36.9231H0V41.5385V46.1538V50.7692V55.3846H4.61538V60H9.23077H13.8462V55.3846H18.4615V50.7692V46.1538H23.0769V41.5385H27.6923H32.3077V46.1538H36.9231H41.5385V50.7692H46.1538H50.7692H55.3846L55.3846 46.1538H60V41.5385V36.9231V32.3077V27.6923V23.0769V18.4615V13.8462L56.3077 13.8462V9.23077H51.6923V4.61538H47.0769H42.4615V0H37.8462H33.2308H28.6154H24H19.3846H14.7692H10.1538ZM51.6923 9.23077V13.8462L50.7692 13.8462V18.4615H46.1538V13.8462L42.4615 13.8462V9.23077H47.0769H51.6923ZM50.7692 41.5385H55.3846L55.3846 46.1538H50.7692V41.5385ZM46.1538 36.9231L46.1538 41.5385H50.7692V36.9231H55.3846L55.3846 32.3077V27.6923L55.3846 23.0769H50.7692V27.6923H46.1538V32.3077H41.5385V27.6923H36.9231V23.0769H32.3077V18.4615V13.8462L28.6154 13.8462L27.6923 13.8462V18.4615H23.0769V13.8462L19.3846 13.8462V9.23077H14.7692L14.7692 4.61538H10.1538V9.23077V13.8462L13.8462 13.8462H18.4615V18.4615H23.0769V23.0769H27.6923H32.3077V27.6923H36.9231V32.3077H41.5385V36.9231H46.1538ZM46.1538 36.9231L46.1538 32.3077H50.7692V36.9231H46.1538ZM18.4615 36.9231H23.0769V32.3077H18.4615V36.9231ZM13.8462 41.5385H18.4615V36.9231H13.8462V41.5385ZM13.8462 41.5385H9.23077V46.1538V50.7692H13.8462L13.8462 46.1538L13.8462 41.5385ZM33.2308 9.23077H37.8462V4.61538H33.2308H28.6154V9.23077H33.2308Z" fill="#0E0E0EB3"/>
</svg>
