<svg width="88" height="60" viewBox="0 0 88 60" fill="none" xmlns="http://www.w3.org/2000/svg">
<path fill-rule="evenodd" clip-rule="evenodd" d="M43.6363 0H46.3636V2.72727H49.0909H51.8182V5.45455H54.5454H57.2727H60L60 8.18182H62.7273V10.9091V13.6364H60L60 16.3636L60 19.0909H62.7273V21.8182H60L60 24.5455H62.7273V27.2727L65.4545 27.2727H68.1818V30H70.9091H73.6363H76.3636H79.0909V32.7273H81.8182H84.5454H87.2727V35.4545H84.5454V38.1818H81.8182V40.9091H79.0909V43.6364H76.3636V46.3636H73.6363V49.0909H70.9091V51.8182H73.6363V54.5455L76.3636 54.5455V57.2727H73.6363V60H70.9091V57.2727H68.1818V54.5455L65.4545 54.5455V51.8182H62.7273H60H57.2727V49.0909H54.5454H51.8182V46.3636H49.0909L49.0909 43.6364H46.3636V40.9091H43.6363V38.1818H40.9091H38.1818H35.4545V35.4545L35.4545 32.7273H32.7272V35.4545H30H27.2727H24.5454H21.8182H19.0909H16.3636V32.7273H13.6363H10.9091H8.18179H5.45452H2.72725H-2.28882e-05V30V27.2727V24.5455H2.72725H5.45452V21.8182H8.18179H10.9091V19.0909H13.6363L16.3636 19.0909V16.3636H19.0909V13.6364H21.8182H24.5454H27.2727H30V16.3636H32.7272V19.0909H35.4545L35.4545 21.8182H38.1818V24.5455H40.9091H43.6363V27.2727L46.3636 27.2727L49.0909 27.2727V24.5455H46.3636V21.8182V19.0909V16.3636H43.6363V13.6364H40.9091V10.9091V8.18182H38.1818V5.45455V2.72727V0H40.9091V2.72727H43.6363V0ZM27.2727 27.2727V24.5455V21.8182V19.0909L24.5454 19.0909H21.8182H19.0909V21.8182V24.5455V27.2727L21.8182 27.2727H24.5454L27.2727 27.2727ZM21.8182 21.8182H24.5454V24.5455H21.8182V21.8182Z" fill="#0E0E0EB3"/>
</svg>
