<svg width="68" height="60" viewBox="0 0 68 60" fill="none" xmlns="http://www.w3.org/2000/svg">
<path fill-rule="evenodd" clip-rule="evenodd" d="M38.4 0H40.8H43.2H45.6H48H50.4H52.8V2.4H55.2V4.8H57.6V7.2V9.6V12H60H62.4H64.8V14.4H67.2V16.8V19.2V21.6H64.8V24H62.4H60H57.6V26.4V28.8V31.2V33.6V36V38.4V40.8V43.2H55.2V45.6V48V50.4H52.8V52.8L50.4 52.8V55.2H48V57.6L45.6 57.6V60H43.2H40.8H38.4H36H33.6H31.2H28.8H26.4H24H21.6H19.2H16.8H14.4H12V57.6H9.6V55.2H7.2V52.8H4.8V50.4H2.4V48V45.6V43.2H0V40.8V38.4V36V33.6V31.2V28.8H2.4V26.4H4.8H7.2V24H9.6H12H14.4H16.8H19.2H21.6H24H26.4H28.8V21.6V19.2V16.8V14.4V12V9.6H31.2V7.2L33.6 7.2V4.8H36V2.4H38.4V0ZM45.6 12H48V14.4L48 16.8H45.6H43.2V14.4V12H45.6Z" fill="#0E0E0EB3"/>
</svg>
