<svg width="58" height="60" viewBox="0 0 58 60" fill="none" xmlns="http://www.w3.org/2000/svg">
<path fill-rule="evenodd" clip-rule="evenodd" d="M5.71429 0H8.57143H11.4286H14.2857H17.1429V2.85714V5.71429V8.57143V11.4286V14.2857V17.1429V20V22.8571H20H22.8571H25.7143H28.5714H31.4286H34.2857H37.1429H40V25.7143V28.5714H42.8571H45.7143H48.5714H51.4286V31.4286V34.2857H54.2857H57.1429V37.1429V40H54.2857H51.4286H48.5714V42.8571V45.7143H45.7143H42.8571H40H37.1429V48.5714V51.4286V54.2857V57.1429V60H34.2857H31.4286H28.5714V57.1429H31.4286H34.2857V54.2857V51.4286V48.5714V45.7143H31.4286H28.5714H25.7143V48.5714V51.4286V54.2857V57.1429V60H22.8571H20H17.1429V57.1429H20H22.8571V54.2857V51.4286V48.5714V45.7143H20H17.1429H14.2857H11.4286V42.8571H8.57143H5.71429V40V37.1429V34.2857V31.4286V28.5714V25.7143V22.8571H8.57143H11.4286V20V17.1429V14.2857V11.4286H8.57143H5.71429H2.85714H0V8.57143V5.71429H2.85714H5.71429V2.85714V0ZM14.2857 2.85714H11.4286V5.71429H14.2857L14.2857 2.85714Z" fill="#0E0E0EB3"/>
</svg>
